 <svg  version="1.0" xmlns="http://www.w3.org/2000/svg"  width="1500.000000pt" height="1500.000000pt" viewBox="0 0 1500.000000 1500.000000"  preserveAspectRatio="xMidYMid meet">  <g transform="translate(0.000000,1500.000000) scale(0.100000,-0.100000)" fill="#da4b2d" stroke="none"> <path d="M6457 11283 c-4 -3 -7 -505 -7 -1115 l0 -1108 300 0 300 0 0 488 c0 269 3 509 6 534 8 56 61 130 124 172 41 28 51 30 136 31 84 0 93 -2 128 -28 48 -37 82 -91 91 -147 4 -25 9 -270 11 -545 l4 -500 290 0 291 0 -1 589 c0 324 -3 592 -5 596 -3 5 -9 34 -14 67 -11 71 -27 113 -69 179 -59 94 -181 184 -269 198 -170 27 -237 28 -348 4 -60 -12 -144 -40 -165 -53 -8 -5 -32 -19 -52 -30 -20 -11 -55 -37 -78 -57 -81 -74 -81 -72 -80 345 0 195 -2 362 -6 371 -5 14 -37 16 -293 16 -158 0 -291 -3 -294 -7z"/> <path d="M8402 11100 l3 -191 280 1 c154 0 283 4 288 9 4 4 6 88 5 187 l-3 179 -288 3 -287 2 2 -190z"/> <path d="M9266 11274 c-3 -9 -6 -510 -6 -1115 l0 -1099 295 0 295 0 0 1100 c0 605 -3 1107 -6 1115 -5 13 -46 15 -289 15 -249 0 -284 -2 -289 -16z"/> <path d="M10137 11283 c-4 -3 -7 -505 -7 -1115 l0 -1108 290 2 290 3 0 1104 c0 607 -3 1107 -6 1112 -6 10 -557 12 -567 2z"/> <path d="M5310 10714 c-117 -7 -267 -38 -340 -72 -19 -8 -51 -23 -70 -31 -105 -48 -258 -193 -306 -292 -75 -152 -89 -225 -88 -449 1 -215 16 -295 84 -433 31 -63 56 -98 112 -153 134 -129 259 -194 453 -235 79 -17 427 -24 454 -9 11 5 48 13 83 17 34 3 73 12 88 20 14 7 33 13 42 13 9 0 19 4 23 9 3 5 19 13 37 16 75 17 256 150 307 226 41 63 88 209 92 289 l4 65 -263 3 -263 2 -14 -35 c-8 -19 -15 -43 -15 -53 0 -10 -18 -44 -41 -76 -50 -69 -105 -99 -212 -116 -140 -21 -265 23 -329 115 -53 78 -68 150 -68 336 0 171 9 227 48 308 55 114 162 162 324 147 144 -14 216 -72 259 -208 l21 -68 273 0 c209 0 274 3 277 13 7 18 -9 153 -21 176 -6 11 -11 28 -11 38 0 10 -11 38 -25 63 -13 25 -28 54 -34 66 -18 40 -208 194 -239 194 -5 0 -15 7 -22 15 -7 8 -19 15 -27 15 -8 0 -29 6 -46 13 -64 27 -136 47 -168 47 -19 0 -50 4 -69 9 -40 10 -228 19 -310 15z"/> <path d="M8400 9885 c0 -443 0 -808 0 -812 0 -5 131 -9 290 -11 l290 -2 -2 812 -3 813 -287 3 -288 2 0 -805z"/> <path d="M11275 9650 l-300 -5 -3 -292 -2 -293 315 0 315 0 0 289 c0 219 -3 291 -12 297 -7 5 -148 7 -313 4z"/> <path d="M7586 8609 c18 -6 38 -22 45 -35 7 -15 21 -24 36 -24 56 0 -7 60 -69 66 -42 4 -42 3 -12 -7z"/> <path d="M7782 8608 c-7 -7 -12 -21 -12 -33 0 -11 -7 -52 -15 -90 -20 -96 -19 -115 5 -115 16 0 20 7 20 31 0 57 14 69 79 69 72 0 88 -14 72 -61 -14 -42 -15 -41 12 -37 18 2 23 11 28 53 4 28 11 74 18 104 14 69 14 81 -3 81 -15 0 -26 -21 -26 -51 0 -32 -36 -59 -79 -59 -64 0 -71 6 -71 60 0 52 -9 67 -28 48z"/> <path d="M8691 8601 c-14 -14 -21 -34 -21 -61 0 -21 -7 -60 -16 -85 -8 -26 -14 -56 -12 -68 3 -20 9 -21 92 -22 63 0 90 4 93 13 4 9 -12 12 -56 12 -51 0 -62 3 -71 21 -9 16 -8 26 5 45 13 21 23 24 71 24 40 0 54 3 51 13 -2 7 -16 11 -33 9 -76 -8 -107 36 -59 83 13 14 20 25 15 25 -4 0 -15 3 -23 6 -9 3 -25 -4 -36 -15z"/> <path d="M8805 8610 c-28 -7 -27 -8 13 -9 27 -1 41 3 37 9 -7 11 -7 11 -50 0z"/> <path d="M8930 8598 c-13 -15 -20 -36 -20 -63 0 -22 -7 -67 -15 -98 -19 -72 -19 -69 7 -65 15 2 24 14 32 42 15 52 37 66 74 46 19 -11 28 -26 32 -50 3 -23 11 -36 23 -38 21 -4 23 34 5 85 -11 32 -10 35 14 56 15 12 30 34 33 49 9 34 -9 43 -97 51 -61 6 -70 4 -88 -15z m121 -17 c20 -16 22 -23 14 -47 -8 -21 -18 -30 -39 -32 -72 -9 -95 21 -55 72 24 31 48 33 80 7z"/> <path d="M9307 8604 c-33 -18 -51 -58 -38 -82 5 -9 31 -29 58 -43 49 -26 67 -59 44 -82 -15 -15 -66 -11 -96 9 -28 18 -41 14 -31 -11 14 -39 111 -44 160 -9 18 14 25 28 26 52 0 40 -15 57 -57 66 -43 10 -66 37 -57 70 8 33 44 35 82 6 18 -15 28 -18 36 -10 16 17 -29 50 -68 50 -17 -1 -44 -8 -59 -16z"/> <path d="M9580 8604 c-47 -20 -72 -57 -77 -113 -6 -63 8 -95 53 -116 69 -33 154 -2 188 69 56 117 -41 212 -164 160z m89 -4 c4 0 17 -18 30 -40 17 -30 21 -49 16 -73 -21 -96 -123 -139 -160 -66 -22 41 -18 91 8 130 25 37 64 62 85 54 8 -3 17 -5 21 -5z"/> <path d="M9852 8604 c-5 -11 -15 -48 -21 -84 -6 -36 -15 -82 -20 -103 -6 -25 -5 -39 2 -44 15 -9 126 -15 155 -8 40 10 23 25 -27 25 -27 0 -56 3 -65 6 -20 8 -21 63 -4 146 9 42 9 61 1 69 -8 8 -14 6 -21 -7z"/> <path d="M10266 8613 c-3 -4 -6 -18 -6 -33 0 -42 -37 -172 -52 -181 -22 -15 -76 -10 -93 8 -18 17 -18 24 1 156 6 39 4 47 -10 47 -17 0 -19 -7 -36 -112 -14 -87 2 -124 55 -134 106 -20 156 33 171 180 5 51 4 64 -9 69 -8 3 -18 3 -21 0z"/> <path d="M10790 8602 c-46 -23 -73 -73 -74 -134 -1 -42 3 -53 27 -74 55 -47 121 -44 181 9 32 28 38 39 43 88 7 67 -6 95 -52 115 -46 19 -83 18 -125 -4z m109 -15 c45 -38 44 -119 -3 -174 -47 -54 -125 -28 -139 47 -7 32 16 87 51 123 28 29 59 30 91 4z"/> <path d="M11060 8588 c-11 -19 -20 -51 -20 -74 0 -22 -6 -62 -14 -87 -15 -49 -13 -57 14 -57 18 0 40 57 40 106 0 16 4 36 10 44 7 12 12 12 29 -4 11 -10 25 -35 32 -55 6 -20 15 -40 20 -45 5 -6 9 -18 9 -28 0 -19 2 -19 47 -21 25 -1 28 4 40 59 8 32 17 88 20 123 4 51 3 63 -8 59 -8 -2 -18 -22 -23 -44 -25 -113 -26 -115 -48 -112 -15 2 -28 21 -49 77 -32 84 -27 76 -56 85 -18 6 -26 1 -43 -26z"/> <path d="M11398 8604 c-45 -25 -46 -114 -1 -114 31 0 83 -41 83 -65 0 -13 -5 -27 -11 -31 -20 -12 -66 -6 -94 12 -32 21 -52 7 -31 -22 11 -15 26 -19 69 -19 91 0 140 53 103 111 -9 13 -25 24 -36 24 -10 0 -31 10 -46 23 -22 19 -26 29 -20 50 8 34 46 36 84 6 24 -19 27 -19 30 -4 2 9 -1 22 -6 27 -17 17 -95 18 -124 2z"/> <path d="M7493 8576 c-34 -31 -37 -39 -41 -98 -4 -63 -3 -65 29 -92 28 -24 40 -27 77 -23 29 3 53 13 69 30 37 36 25 56 -14 23 -64 -54 -126 -24 -125 60 1 37 8 56 32 85 16 21 30 40 30 43 0 15 -23 3 -57 -28z"/> <path d="M8075 8598 c-2 -7 -6 -33 -8 -58 -2 -25 -10 -72 -16 -104 -10 -48 -10 -60 1 -67 7 -4 16 -5 19 -1 12 13 32 106 36 175 4 57 2 67 -11 67 -9 0 -18 -6 -21 -12z"/> <path d="M8196 8588 c-16 -78 -29 -158 -30 -188 l-1 -35 89 0 c62 0 90 4 93 13 4 9 -12 12 -55 12 -89 0 -90 2 -66 173 6 39 4 47 -10 47 -8 0 -18 -10 -20 -22z"/> <path d="M8445 8599 c-10 -15 -37 -155 -39 -198 l-1 -34 89 -1 c63 -1 90 3 93 12 3 8 -11 12 -49 12 -31 0 -63 6 -73 14 -18 13 -19 18 -6 92 8 44 14 85 15 93 1 18 -20 26 -29 10z"/> <path d="M10415 8587 l27 -22 -16 -90 c-20 -111 -20 -105 4 -105 15 0 20 7 20 28 0 34 36 182 47 193 4 4 19 9 33 12 14 2 -12 5 -58 6 l-83 1 26 -23z"/> <path d="M10632 8598 c-7 -7 -12 -20 -12 -30 0 -10 -7 -54 -16 -98 -18 -87 -14 -124 11 -99 12 12 25 74 42 202 5 38 -3 47 -25 25z"/> </g> </svg> 